<?xml version="1.0" standalone="no"?>
<!DOCTYPE svg PUBLIC "-//W3C//DTD SVG 20010904//EN"
 "http://www.w3.org/TR/2001/REC-SVG-20010904/DTD/svg10.dtd">
<svg version="1.0" xmlns="http://www.w3.org/2000/svg"
 width="500.000000pt" height="500.000000pt" viewBox="0 0 500.000000 500.000000"
 preserveAspectRatio="xMidYMid meet">

<g transform="translate(0.000000,500.000000) scale(0.100000,-0.100000)"
fill="#000000" stroke="none">
<path d="M2375 4149 c-826 -56 -1494 -733 -1542 -1561 l-6 -108 170 0 170 0 7
38 c3 20 6 56 6 79 0 112 61 334 128 468 187 376 517 631 932 721 120 26 400
26 520 0 475 -103 836 -420 993 -872 34 -99 67 -255 67 -323 0 -20 3 -53 6
-73 l7 -38 168 0 169 0 0 58 c0 32 -5 96 -11 142 -46 371 -197 691 -453 957
-243 253 -520 408 -861 482 -81 18 -129 23 -310 35 -27 1 -99 -1 -160 -5z"/>
<path d="M2370 3674 c-572 -73 -1010 -492 -1091 -1044 -19 -129 -7 -362 24
-482 174 -664 848 -1059 1508 -882 214 57 387 159 549 323 182 183 283 369
337 621 14 65 18 125 17 255 -1 156 -4 180 -32 287 -56 216 -153 388 -312 552
-177 183 -398 304 -642 351 -83 16 -293 27 -358 19z m317 -589 l35 -35 -4 -90
c-3 -62 -1 -90 7 -90 20 0 255 -246 255 -266 0 -29 -21 -52 -52 -60 -25 -5
-37 2 -101 65 -41 39 -77 71 -80 71 -13 0 -8 -275 5 -288 8 -8 14 -53 16 -122
4 -103 5 -110 25 -110 29 0 57 -29 57 -57 0 -24 2 -25 58 -21 31 3 72 11 90
19 49 21 91 -13 79 -64 -9 -32 -95 -77 -149 -77 -32 0 -38 -3 -38 -22 0 -53
-74 -79 -104 -36 -9 12 -16 30 -16 40 0 17 -15 18 -200 18 -199 0 -200 0 -200
-22 0 -53 -74 -79 -104 -36 -9 12 -16 30 -16 40 0 13 -8 18 -25 18 -34 0 -94
26 -122 52 -27 25 -29 54 -6 80 19 21 49 23 83 3 17 -10 57 -14 127 -15 l102
0 -40 67 c-21 37 -39 75 -39 83 0 9 44 40 105 74 89 51 105 64 105 85 0 13 -8
33 -17 44 -15 15 -19 42 -21 139 l-4 120 -24 -23 c-21 -20 -24 -31 -24 -100 0
-69 -3 -80 -22 -93 -32 -23 -54 -20 -77 10 -17 22 -21 41 -21 106 0 51 5 89
15 108 15 30 15 30 -14 30 -17 0 -62 16 -100 35 -75 38 -90 59 -77 113 4 15
10 45 15 67 4 23 11 46 15 53 14 24 68 44 102 39 23 -4 46 2 80 20 39 21 56
24 94 19 39 -5 51 -2 80 19 51 38 103 34 147 -10z m-419 -792 c-3 -16 -19 -18
-146 -21 -137 -2 -142 -2 -142 18 0 19 6 20 146 20 133 0 145 -1 142 -17z
m-68 -83 c0 -19 -7 -20 -140 -20 -133 0 -140 1 -140 20 0 19 7 20 140 20 133
0 140 -1 140 -20z"/>
<path d="M2590 3083 c-8 -3 -26 -14 -39 -24 -17 -14 -41 -19 -85 -19 -44 0
-69 -6 -91 -20 -20 -13 -47 -20 -81 -20 -63 0 -81 -14 -93 -70 -5 -25 -12 -54
-15 -65 -4 -11 -3 -25 1 -30 15 -20 118 -64 163 -70 43 -5 47 -4 85 36 22 23
59 50 83 61 35 16 42 24 42 47 0 47 40 95 89 107 l43 10 -23 26 c-26 28 -55
40 -79 31z"/>
<path d="M2619 2959 c-25 -25 -23 -82 3 -87 27 -5 68 42 68 78 0 25 -4 30 -25
30 -14 0 -34 -9 -46 -21z"/>
<path d="M2602 2828 c7 -19 38 -22 38 -4 0 10 -9 16 -21 16 -12 0 -19 -5 -17
-12z"/>
<path d="M2400 2712 c-30 -31 -31 -33 -28 -119 3 -80 5 -88 23 -88 18 0 20 8
23 80 2 65 7 84 24 103 20 21 21 24 6 39 -15 15 -19 14 -48 -15z"/>
<path d="M2802 2728 c-7 -7 -12 -17 -12 -23 0 -18 119 -127 133 -122 27 9 15
35 -46 95 -49 49 -65 60 -75 50z"/>
<path d="M2540 2508 c0 -41 5 -48 70 -113 l69 -69 3 -80 c3 -73 5 -81 23 -81
18 0 20 8 23 98 l3 97 -51 54 c-41 43 -48 55 -37 65 11 8 18 6 32 -9 28 -31
36 -24 33 28 l-3 47 -82 3 -83 3 0 -43z"/>
<path d="M2553 2239 c-68 -38 -72 -42 -66 -69 4 -24 -1 -34 -28 -60 l-33 -30
112 0 112 0 0 100 c0 74 -3 100 -12 100 -7 -1 -45 -19 -85 -41z"/>
<path d="M2381 2231 c-12 -7 -9 -17 13 -55 18 -30 31 -43 41 -40 20 8 19 33
-5 72 -21 34 -27 37 -49 23z"/>
<path d="M2680 2105 c0 -24 2 -25 66 -25 62 0 65 1 62 23 -3 20 -9 22 -65 25
-62 3 -63 2 -63 -23z"/>
<path d="M2290 1940 c0 -13 7 -20 20 -20 13 0 20 7 20 20 0 13 -7 20 -20 20
-13 0 -20 -7 -20 -20z"/>
<path d="M2813 1944 c-6 -16 15 -37 29 -28 4 3 8 14 8 25 0 23 -28 26 -37 3z"/>
<path d="M1008 2422 c-86 -20 -108 -29 -108 -43 0 -13 12 -19 48 -24 74 -10
78 -19 17 -40 -38 -13 -55 -24 -55 -36 0 -15 16 -18 125 -24 113 -7 148 -4
134 10 -3 2 -52 8 -109 12 l-105 8 60 21 c35 12 60 26 60 35 0 9 -20 18 -60
25 -64 12 -61 17 20 34 91 20 125 31 125 40 0 15 -33 11 -152 -18z"/>
<path d="M3840 2416 c0 -8 27 -34 60 -56 33 -22 60 -43 60 -45 0 -3 -29 -18
-63 -34 -35 -15 -67 -36 -70 -45 -9 -22 -7 -21 80 19 59 27 89 35 134 35 59 0
78 12 37 24 -13 3 -35 6 -51 6 -17 0 -53 19 -95 48 -89 64 -92 66 -92 48z"/>
<path d="M1040 2201 c-54 -17 -88 -41 -100 -70 -10 -26 -9 -36 6 -68 24 -49
63 -61 139 -44 76 17 115 51 115 101 0 56 -26 82 -86 86 -27 2 -60 0 -74 -5z
m126 -46 c21 -33 15 -55 -24 -82 -73 -49 -173 -38 -180 19 -5 46 63 85 150 87
29 1 41 -4 54 -24z"/>
<path d="M3827 2170 c-14 -11 -28 -35 -32 -53 -4 -17 -9 -39 -11 -48 -4 -13
18 -22 120 -48 146 -36 136 -35 136 -17 0 9 -20 19 -50 26 -57 14 -61 17 -50
46 6 15 24 24 67 33 53 12 72 24 73 43 0 4 -30 -2 -67 -13 -65 -18 -82 -16
-83 13 0 8 -54 38 -68 38 -5 0 -21 -9 -35 -20z m83 -41 c15 -26 3 -82 -15 -75
-8 3 -30 8 -50 12 -33 6 -36 9 -30 33 10 38 24 51 56 51 18 0 32 -7 39 -21z"/>
<path d="M1098 1972 c-60 -25 -108 -52 -108 -59 0 -7 3 -13 6 -13 10 0 159 63
169 71 24 23 22 5 -5 -33 -16 -22 -30 -44 -30 -49 0 -4 24 -11 52 -16 l53 -8
-97 -40 c-69 -29 -95 -44 -89 -53 6 -9 36 -1 121 35 115 49 140 68 98 77 -13
3 -40 8 -61 13 l-37 8 35 49 c33 47 37 67 12 65 -7 -1 -60 -22 -119 -47z"/>
<path d="M3764 1972 c-20 -14 -44 -56 -44 -78 0 -33 39 -74 94 -100 55 -26 96
-30 127 -14 20 11 49 60 49 84 0 24 -52 78 -95 97 -41 19 -111 25 -131 11z
m114 -37 c47 -20 82 -53 82 -78 0 -29 -29 -57 -59 -57 -30 0 -107 34 -133 57
-21 18 -24 63 -6 81 17 17 71 15 116 -3z"/>
<path d="M1270 1773 l-35 -68 -79 3 c-62 3 -77 1 -74 -10 3 -9 27 -14 76 -16
l71 -3 -32 -59 c-25 -45 -29 -62 -20 -71 9 -9 20 5 47 58 l35 70 72 -5 c58 -4
71 -2 67 9 -3 10 -24 15 -66 17 -34 2 -62 6 -62 9 0 3 12 26 26 51 19 32 24
50 18 63 -8 16 -15 8 -44 -48z"/>
<path d="M3638 1745 c-27 -41 -48 -78 -48 -83 0 -17 48 -43 56 -31 4 7 -1 16
-10 21 -19 11 -20 17 -1 42 13 17 18 16 100 -35 73 -46 85 -57 80 -76 -10 -40
13 -33 40 12 25 44 26 84 1 49 -8 -11 -18 -14 -27 -9 -78 45 -159 101 -159
111 0 19 25 34 48 27 30 -7 28 11 -3 31 -13 9 -26 16 -27 16 -2 0 -24 -34 -50
-75z"/>
<path d="M1333 1577 c-107 -94 -106 -93 -98 -107 4 -7 34 13 81 55 41 37 74
65 74 63 0 -1 -16 -52 -35 -112 -18 -60 -32 -113 -29 -118 3 -5 49 28 102 73
53 46 99 84 101 86 3 2 0 8 -5 13 -7 7 -34 -10 -80 -49 -38 -33 -70 -58 -71
-57 -1 1 11 46 27 101 31 102 35 125 23 124 -5 0 -45 -33 -90 -72z"/>
<path d="M3516 1580 c-41 -45 -46 -80 -16 -110 25 -25 31 -25 108 2 47 18 66
20 80 12 28 -18 25 -47 -8 -79 -26 -25 -33 -28 -50 -17 -25 16 -30 15 -30 -3
0 -8 9 -19 20 -25 65 -35 147 94 92 143 -25 23 -60 21 -116 -4 -26 -11 -55
-17 -66 -14 -29 9 -26 56 5 85 20 19 27 21 40 10 23 -19 31 -3 10 20 -10 11
-21 20 -25 20 -4 0 -24 -18 -44 -40z"/>
<path d="M3362 1429 c-34 -28 -62 -58 -62 -66 0 -16 13 -10 46 18 20 19 21 18
87 -63 l68 -81 -26 -27 c-14 -14 -22 -29 -19 -33 6 -6 35 14 113 81 41 34 27
53 -14 20 l-28 -22 -40 45 c-21 24 -52 60 -68 80 l-28 36 24 23 c25 23 32 40
17 40 -4 0 -35 -23 -70 -51z"/>
<path d="M1526 1438 c-21 -30 -20 -51 4 -98 11 -22 20 -50 20 -64 0 -31 -32
-51 -58 -37 -9 5 -26 19 -37 31 -16 18 -17 24 -7 41 18 28 4 44 -19 23 -28
-25 -23 -49 16 -89 41 -40 91 -48 118 -17 23 25 21 56 -5 120 -17 40 -20 57
-12 70 17 26 39 25 73 -4 29 -24 31 -28 16 -44 -14 -15 -11 -30 6 -30 3 0 14
11 23 25 15 24 15 25 -19 60 -44 43 -94 48 -119 13z"/>
<path d="M3253 1342 c-8 -5 -2 -23 18 -56 17 -26 29 -49 27 -51 -10 -8 -96
-55 -100 -55 -4 0 -18 21 -33 46 -24 40 -48 56 -46 29 2 -21 127 -215 138
-215 19 0 17 7 -18 62 -16 28 -29 51 -27 53 11 8 96 55 101 55 3 0 18 -22 34
-50 15 -27 31 -50 35 -50 22 0 12 29 -38 112 -75 124 -78 128 -91 120z"/>
<path d="M1904 1222 c-20 -13 -34 -50 -27 -69 4 -10 24 -40 45 -66 41 -52 45
-66 26 -85 -28 -28 -111 4 -106 41 4 33 -15 35 -27 3 -8 -24 -6 -30 15 -47 65
-49 134 -43 154 13 10 27 -3 52 -64 128 -38 47 -1 79 59 54 27 -11 31 -17 25
-39 -8 -31 11 -34 26 -4 16 29 6 48 -35 64 -37 16 -74 19 -91 7z"/>
<path d="M2071 1045 c-36 -145 -35 -135 -17 -135 9 0 19 20 27 55 17 77 38 74
74 -10 15 -36 36 -70 46 -76 25 -13 24 -10 -11 68 -16 36 -30 71 -30 77 1 6
25 31 55 55 37 31 51 47 43 53 -12 7 -24 -1 -95 -66 -18 -16 -38 -26 -47 -23
-13 5 -13 12 0 59 17 66 17 68 0 68 -9 0 -24 -41 -45 -125z"/>
<path d="M2787 1145 c-27 -7 -50 -15 -51 -17 -3 -2 27 -138 49 -227 6 -25 22
-25 118 0 46 12 51 34 5 25 -98 -21 -94 -22 -106 25 -13 50 -9 54 50 64 35 6
56 20 45 31 -2 2 -27 -1 -55 -8 -29 -6 -54 -9 -57 -7 -2 3 -7 23 -11 45 l-6
40 56 13 c31 7 56 17 56 22 0 12 -35 10 -93 -6z"/>
<path d="M2312 998 c-29 -68 -52 -126 -52 -130 0 -21 23 -4 36 28 14 34 16 35
67 32 51 -3 52 -4 61 -40 5 -21 15 -38 23 -38 17 0 17 6 -11 118 -13 53 -27
109 -30 125 -4 17 -13 27 -24 27 -13 0 -31 -32 -70 -122z m82 35 c3 -21 9 -49
13 -62 6 -23 5 -24 -33 -17 -21 5 -40 9 -42 10 -6 6 41 115 48 111 4 -3 10
-22 14 -42z"/>
<path d="M2535 1113 c-40 -4 -41 -5 -37 -38 5 -40 22 -48 22 -10 0 21 5 25 29
25 28 0 28 -1 35 -77 10 -119 8 -130 -14 -136 -11 -3 -20 -10 -20 -16 0 -12
32 -14 79 -5 34 7 43 24 12 24 -15 0 -19 11 -24 68 -12 118 -10 140 14 147 22
7 39 -7 39 -32 0 -7 5 -13 10 -13 6 0 10 16 10 35 l0 35 -57 -2 c-32 -1 -76
-3 -98 -5z"/>
</g>
</svg>
